<svg xmlns="http://www.w3.org/2000/svg" xmlns:xlink="http://www.w3.org/1999/xlink" version="1.0" x="0" y="0" width="2400" height="487.5669990516739" viewBox="13.9427392578125 93.29651428222657 312.114521484375 63.406975250244145" preserveAspectRatio="xMidYMid meet" color-interpolation-filters="sRGB"><g><defs><linearGradient id="92" x1="0%" y1="0%" x2="100%" y2="0%"><stop offset="0%" stop-color="#fa71cd"></stop> <stop offset="100%" stop-color="#9b59b6"></stop></linearGradient><linearGradient id="93" x1="0%" y1="0%" x2="100%" y2="0%"><stop offset="0%" stop-color="#f9d423"></stop> <stop offset="100%" stop-color="#f83600"></stop></linearGradient><linearGradient id="94" x1="0%" y1="0%" x2="100%" y2="0%"><stop offset="0%" stop-color="#0064d2"></stop> <stop offset="100%" stop-color="#1cb0f6"></stop></linearGradient><linearGradient id="95" x1="0%" y1="0%" x2="100%" y2="0%"><stop offset="0%" stop-color="#f00978"></stop> <stop offset="100%" stop-color="#3f51b1"></stop></linearGradient><linearGradient id="96" x1="0%" y1="0%" x2="100%" y2="0%"><stop offset="0%" stop-color="#7873f5"></stop> <stop offset="100%" stop-color="#ec77ab"></stop></linearGradient><linearGradient id="97" x1="0%" y1="0%" x2="100%" y2="0%"><stop offset="0%" stop-color="#f9d423"></stop> <stop offset="100%" stop-color="#e14fad"></stop></linearGradient><linearGradient id="98" x1="0%" y1="0%" x2="100%" y2="0%"><stop offset="0%" stop-color="#009efd"></stop> <stop offset="100%" stop-color="#2af598"></stop></linearGradient><linearGradient id="99" x1="0%" y1="0%" x2="100%" y2="0%"><stop offset="0%" stop-color="#ffcc00"></stop> <stop offset="100%" stop-color="#00b140"></stop></linearGradient><linearGradient id="100" x1="0%" y1="0%" x2="100%" y2="0%"><stop offset="0%" stop-color="#d51007"></stop> <stop offset="100%" stop-color="#ff8177"></stop></linearGradient><linearGradient id="102" x1="0%" y1="0%" x2="100%" y2="0%"><stop offset="0%" stop-color="#a2b6df"></stop> <stop offset="100%" stop-color="#0c3483"></stop></linearGradient><linearGradient id="103" x1="0%" y1="0%" x2="100%" y2="0%"><stop offset="0%" stop-color="#7ac5d8"></stop> <stop offset="100%" stop-color="#eea2a2"></stop></linearGradient><linearGradient id="104" x1="0%" y1="0%" x2="100%" y2="0%"><stop offset="0%" stop-color="#00ecbc"></stop> <stop offset="100%" stop-color="#007adf"></stop></linearGradient><linearGradient id="105" x1="0%" y1="0%" x2="100%" y2="0%"><stop offset="0%" stop-color="#b88746"></stop> <stop offset="100%" stop-color="#fdf5a6"></stop></linearGradient></defs><g fill="#333333" class="iconblsvg-g iconsvg" transform="translate(17.002685546875,96.35645866394043)"><g class="tp-name"><g stroke="url(#b47c7b66-0ac9-4c90-9c4b-f8a58f4951cf)" transform="translate(0, 7.8470615386962805)" fill="url(#b47c7b66-0ac9-4c90-9c4b-f8a58f4951cf)"><g transform="scale(1.6000000000000005)"><path d="M8.05 0L3.04 0 6.4278211450019676-24.105600000000003 11.43782114500197-24.105600000000003 10.032300365310292-14.104800000000001 24.91230036531029-14.104800000000001 26.317821145001968-24.105600000000003 31.32782114500197-24.105600000000003 27.94 0 22.93 0 24.358288394913465-10.1628 9.478288394913465-10.1628 8.05 0ZM48.36 0L37.89 0Q35.34 0 34.26481978350815-1.1016000000000001 33.18115740803109-2.214 33.5332965234614-4.719600000000001L33.5332965234614-4.719600000000001 34.71417683296478-13.122000000000002Q34.80069377080757-13.737600000000002 35.02363889300523-14.612400000000001 35.23810185621767-15.498000000000001 35.799529137400526-16.362000000000002 36.35943857756861-17.2152 37.48140199236704-17.7984 38.61184756615069-18.370800000000003 40.47184756615069-18.370800000000003L40.47184756615069-18.370800000000003 50.94184756615069-18.370800000000003Q52.84184756615069-18.370800000000003 53.79140199236704-17.7984 54.729438577568615-17.2152 55.049529137400526-16.362000000000002 55.358101856217665-15.498000000000001 55.33363889300523-14.612400000000001 55.30069377080757-13.737600000000002 55.21417683296478-13.122000000000002L55.21417683296478-13.122000000000002 54.10767073318591-5.248800000000001Q54.004457544180475-4.5144 53.786958898938465-3.6072 53.560978094711245-2.7108 52.995622177587514-1.8900000000000001 52.4202662604638-1.0692000000000002 51.3243742097245-0.5292 50.22 0 48.36 0L48.36 0ZM39.82481617082018-3.5208L39.82481617082018-3.5208 47.41481617082018-3.5208Q49.27481617082018-3.5208 49.505528005067625-5.162400000000001L49.505528005067625-5.162400000000001 50.63480172006828-13.197600000000001Q50.865513554315726-14.839200000000002 49.005513554315726-14.839200000000002L49.005513554315726-14.839200000000002 41.41551355431572-14.839200000000002Q39.59551355431572-14.839200000000002 39.36480172006828-13.197600000000001L39.36480172006828-13.197600000000001 38.23552800506762-5.162400000000001Q38.00481617082018-3.5208 39.82481617082018-3.5208ZM62.56 0L57.93 0 61.12201965409459-22.712400000000002 61.203443322589486-25.995600000000003 66.21344332258948-25.995600000000003 62.56 0ZM82.22 0L71.75 0Q69.2 0 68.12481978350816-1.1016000000000001 67.05115740803109-2.214 67.4032965234614-4.719600000000001L67.4032965234614-4.719600000000001 68.58417683296477-13.122000000000002Q68.67069377080757-13.737600000000002 68.88363889300523-14.612400000000001 69.10810185621767-15.498000000000001 69.65952913740053-16.362000000000002 70.21943857756861-17.2152 71.34140199236705-17.7984 72.4718475661507-18.370800000000003 74.3318475661507-18.370800000000003L74.3318475661507-18.370800000000003 84.8018475661507-18.370800000000003Q86.7018475661507-18.370800000000003 87.65140199236706-17.7984 88.58943857756861-17.2152 88.90952913740053-16.362000000000002 89.21810185621767-15.498000000000001 89.19363889300523-14.612400000000001 89.16069377080758-13.737600000000002 89.07417683296478-13.122000000000002L89.07417683296478-13.122000000000002 87.96767073318591-5.248800000000001Q87.86445754418048-4.5144 87.64695889893846-3.6072 87.42097809471124-2.7108 86.85562217758752-1.8900000000000001 86.28026626046379-1.0692000000000002 85.18437420972451-0.5292 84.08 0 82.22 0L82.22 0ZM73.68481617082018-3.5208L73.68481617082018-3.5208 81.27481617082019-3.5208Q83.13481617082019-3.5208 83.36552800506763-5.162400000000001L83.36552800506763-5.162400000000001 84.49480172006828-13.197600000000001Q84.72551355431573-14.839200000000002 82.86551355431573-14.839200000000002L82.86551355431573-14.839200000000002 75.27551355431572-14.839200000000002Q73.45551355431573-14.839200000000002 73.22480172006829-13.197600000000001L73.22480172006829-13.197600000000001 72.09552800506764-5.162400000000001Q71.86481617082019-3.5208 73.68481617082018-3.5208Z" transform="translate(-3.0399999618530273, 25.9955997467041)" stroke-width="0.4" stroke-linejoin="round"></path></g></g> <g transform="translate(140.84869384765625, 0)"><g><g class="imagesvg"><g><rect fill="#333333" fill-opacity="0" stroke-width="2" x="0" y="0" width="50.8251001883522" height="57.28708316991907" class="image-rect"></rect> <svg x="0" y="0" width="50.8251001883522" height="57.28708316991907" filtersec="colorsb4712646730" class="image-svg-svg primary" style="overflow: visible;"><svg xmlns="http://www.w3.org/2000/svg" viewBox="0.010680079460144043 -0.007637665141373873 60.91294860839844 68.657470703125"><defs><linearGradient id="a610130ed-4a66-47c6-aa94-becfd147e998" y1="34.32" x2="60.93" y2="34.32" gradientUnits="userSpaceOnUse"><stop offset="0" stop-color="#fc62db"></stop><stop offset=".47" stop-color="#87ebff"></stop><stop offset=".99" stop-color="#175bec"></stop></linearGradient></defs><path d="M41.71 0a19.77 19.77 0 0 1 8 1.45C53.31 3 60.26 13.14 60.22 17.08s-2 7.06-4.46 9.9a2.07 2.07 0 0 0-.18 3.02c1.28 1.82 2.34 3.81 3.62 5.62 2.22 3.14 2.13 6.41.67 9.72-2.13 4.9-5.76 8.56-9.87 11.71-8.79 6.65-18.57 10.85-29.6 11.54-6.13.38-11.7-.94-14.82-7.15A27.3 27.3 0 0 0 3 57.4C.23 53.75.19 50 2.2 46a19.42 19.42 0 0 1 3.17-4.65 1.74 1.74 0 0 0 .19-2.57C4.32 37 3.27 35.12 2 33.39c-2.9-3.92-2.35-7.85-.14-11.76a33.86 33.86 0 0 1 8.4-9.49C19 5.05 32 0 41.71 0zM18.87 44.53c12.76-.62 23.64-5.75 33.21-14 2.27-2 2.2-2.76-.37-4.33A16.93 16.93 0 0 0 41.43 24c-12.86 1-23.84 6.25-33.37 14.8-1.05.94-1.16 1.62 0 2.65 3.13 2.77 6.94 3.01 10.81 3.08z" fill="url(#a610130ed-4a66-47c6-aa94-becfd147e998)"></path></svg></svg> </g></g></g></g> <g stroke="url(#7015f3ee-6f5c-4249-8ca7-316aca59f46d)" fill="url(#7015f3ee-6f5c-4249-8ca7-316aca59f46d)" transform="translate(194.6737937927246, 7.8470615386962805)"><g transform="scale(1.6000000000000005)"><path d="M25.4 0L19.32 0 12.111749780942825-24.062400000000004 17.431749780942827-24.062400000000004 22.228828141217008-7.4628000000000005 22.84445754418048-4.5144 23.184457544180475-4.5144 24.588828141217007-7.4628000000000005 34.131749780942826-24.062400000000004 39.29174978094282-24.062400000000004 38.33719987058644-21.610800000000005 25.4 0ZM49.31 0L41.68 0Q39.78 0 38.8343742097245-0.5292 37.88026626046379-1.0692000000000002 37.565622177587514-1.8900000000000001 37.240978094711245-2.7108 37.27695889893847-3.6072 37.30445754418048-4.5144 37.40767073318592-5.248800000000001L37.40767073318592-5.248800000000001 38.514176832964786-13.122000000000002Q38.600693770807574-13.737600000000002 38.82363889300523-14.612400000000001 39.038101856217665-15.498000000000001 39.59952913740052-16.362000000000002 40.14943857756861-17.2152 41.281401992367044-17.7984 42.40184756615069-18.370800000000003 44.26184756615069-18.370800000000003L44.26184756615069-18.370800000000003 52.421847566150696-18.370800000000003Q54.931847566150694-18.370800000000003 56.27899119744097-17.852400000000003 57.63765266974604-17.3448 58.05524368116396-16.1892 58.484352533596656-15.044400000000001 58.21417683296478-13.122000000000002L58.21417683296478-13.122000000000002 57.361150182655145-7.0524000000000004 50.721150182655144-7.0524000000000004Q47.30115018265515-7.0524000000000004 45.18391779787694-7.2144 43.05668541309873-7.3764 42.34275677715786-7.419600000000001L42.34275677715786-7.419600000000001 42.02552800506762-5.162400000000001Q41.75481617082018-3.5208 43.61481617082018-3.5208L43.61481617082018-3.5208 45.55481617082018-3.5208Q47.60481617082018-3.5208 49.5639232169089-3.5856 51.53303026299761-3.6504000000000003 53.17669083213068-3.7476000000000003 54.82186924227854-3.8556 55.822494129382044-3.9312000000000005L55.822494129382044-3.9312000000000005 56.96910523974473-1.2744Q56.79 0 49.31 0L49.31 0ZM43.15480172006828-13.197600000000001L42.785966353475324-10.5732 53.22596635347533-10.5732 53.59480172006828-13.197600000000001Q53.710157637192005-14.018400000000002 53.58721070865037-14.3532 53.462745939093935-14.677200000000001 52.63488866721223-14.7636 51.81551355431572-14.839200000000002 49.80551355431572-14.839200000000002L49.80551355431572-14.839200000000002 45.20551355431572-14.839200000000002Q43.38551355431572-14.839200000000002 43.15480172006828-13.197600000000001L43.15480172006828-13.197600000000001ZM72.85 0L65.22 0Q63.32 0 62.3643742097245-0.5292 61.4202662604638-1.0692000000000002 61.095622177587515-1.8900000000000001 60.780978094711244-2.7108 60.80695889893846-3.6072 60.84445754418048-4.5144 60.947670733185916-5.248800000000001L60.947670733185916-5.248800000000001 62.054176832964785-13.122000000000002Q62.14069377080757-13.737600000000002 62.353638893005225-14.612400000000001 62.578101856217664-15.498000000000001 63.129529137400525-16.362000000000002 63.689438577568616-17.2152 64.81140199236705-17.7984 65.9418475661507-18.370800000000003 67.8018475661507-18.370800000000003L67.8018475661507-18.370800000000003 73.0718475661507-18.370800000000003Q77.8218475661507-18.370800000000003 79.77390154078105-18.100800000000003 81.7259555154114-17.830800000000004 81.68649164902698-17.55L81.68649164902698-17.55 80.49783559575387-14.4288Q79.43997832387215-14.5152 77.82363889300522-14.612400000000001 76.20881730315308-14.720400000000001 74.33640650822701-14.7744 72.46551355431572-14.839200000000002 70.68551355431572-14.839200000000002L70.68551355431572-14.839200000000002 68.74551355431572-14.839200000000002Q66.92551355431573-14.839200000000002 66.69480172006828-13.197600000000001L66.69480172006828-13.197600000000001 65.56552800506763-5.162400000000001Q65.29481617082018-3.5208 67.15481617082018-3.5208L67.15481617082018-3.5208 69.09481617082018-3.5208Q71.14481617082019-3.5208 73.1039232169089-3.5856 75.0730302629976-3.6504000000000003 76.71669083213068-3.7476000000000003 78.36186924227853-3.8556 79.36249412938204-3.9312000000000005L79.36249412938204-3.9312000000000005 80.50910523974473-1.2744Q80.33 0 72.85 0L72.85 0Z" transform="translate(-12.111749649047852, 25.9955997467041)" stroke-width="0.4" stroke-linejoin="round"></path></g></g></g> </g><defs v-gra="od"><linearGradient x1="0" y1="0" x2="1" y2="0" id="b47c7b66-0ac9-4c90-9c4b-f8a58f4951cf"><stop offset="0%" stop-color="#cccccc"></stop><stop offset="100%" stop-color="#afafaf"></stop></linearGradient><filter id="42443b3f1de60f6b6fd3b6a9844b4764" filterUnits="objectBoundingBox"><feColorMatrix type="matrix" values="0 0 0 0 0.99609375  0 0 0 0 0.99609375  0 0 0 0 0.99609375  0 0 0 1 0"></feColorMatrix></filter><linearGradient x1="0" y1="0" x2="1" y2="0" id="7015f3ee-6f5c-4249-8ca7-316aca59f46d"><stop offset="0%" stop-color="#cccccc"></stop><stop offset="100%" stop-color="#afafaf"></stop></linearGradient><filter id="42443b3f1de60f6b6fd3b6a9844b4764" filterUnits="objectBoundingBox"><feColorMatrix type="matrix" values="0 0 0 0 0.99609375  0 0 0 0 0.99609375  0 0 0 0 0.99609375  0 0 0 1 0"></feColorMatrix></filter></defs></g></svg>