
<svg
  version="1.0"
  xmlns="http://www.w3.org/2000/svg"
  xmlns:xlink="http://www.w3.org/1999/xlink"
  width="2400"
  height="1800"
>
  
  <rect
    x="0"
    y="0"
    width="100%"
    height="100%"
    fill="#ffffff"
    fill-opacity="1"
  ></rect>
  <svg
    version="1.0"
    xmlns="http://www.w3.org/2000/svg"
    xmlns:xlink="http://www.w3.org/1999/xlink"
    x="0"
    y="0"
    width="2400"
    height="1800"
    viewBox="0 0 340.000000 250.000000"
    preserveAspectRatio="xMidYMid meet"
    color-interpolation-filters="sRGB"
  >
    <defs><linearGradient id="92" x1="0%" y1="0%" x2="100%" y2="0%"><stop offset="0%" stop-color="#fa71cd"/> <stop offset="100%" stop-color="#9b59b6"/></linearGradient><linearGradient id="93" x1="0%" y1="0%" x2="100%" y2="0%"><stop offset="0%" stop-color="#f9d423"/> <stop offset="100%" stop-color="#f83600"/></linearGradient><linearGradient id="94" x1="0%" y1="0%" x2="100%" y2="0%"><stop offset="0%" stop-color="#0064d2"/> <stop offset="100%" stop-color="#1cb0f6"/></linearGradient><linearGradient id="95" x1="0%" y1="0%" x2="100%" y2="0%"><stop offset="0%" stop-color="#f00978"/> <stop offset="100%" stop-color="#3f51b1"/></linearGradient><linearGradient id="96" x1="0%" y1="0%" x2="100%" y2="0%"><stop offset="0%" stop-color="#7873f5"/> <stop offset="100%" stop-color="#ec77ab"/></linearGradient><linearGradient id="97" x1="0%" y1="0%" x2="100%" y2="0%"><stop offset="0%" stop-color="#f9d423"/> <stop offset="100%" stop-color="#e14fad"/></linearGradient><linearGradient id="98" x1="0%" y1="0%" x2="100%" y2="0%"><stop offset="0%" stop-color="#009efd"/> <stop offset="100%" stop-color="#2af598"/></linearGradient><linearGradient id="99" x1="0%" y1="0%" x2="100%" y2="0%"><stop offset="0%" stop-color="#ffcc00"/> <stop offset="100%" stop-color="#00b140"/></linearGradient><linearGradient id="100" x1="0%" y1="0%" x2="100%" y2="0%"><stop offset="0%" stop-color="#d51007"/> <stop offset="100%" stop-color="#ff8177"/></linearGradient><linearGradient id="102" x1="0%" y1="0%" x2="100%" y2="0%"><stop offset="0%" stop-color="#a2b6df"/> <stop offset="100%" stop-color="#0c3483"/></linearGradient><linearGradient id="103" x1="0%" y1="0%" x2="100%" y2="0%"><stop offset="0%" stop-color="#7ac5d8"/> <stop offset="100%" stop-color="#eea2a2"/></linearGradient><linearGradient id="104" x1="0%" y1="0%" x2="100%" y2="0%"><stop offset="0%" stop-color="#00ecbc"/> <stop offset="100%" stop-color="#007adf"/></linearGradient><linearGradient id="105" x1="0%" y1="0%" x2="100%" y2="0%"><stop offset="0%" stop-color="#b88746"/> <stop offset="100%" stop-color="#fdf5a6"/></linearGradient></defs> <g fill="#333333" class="iconblsvg-g iconsvg" transform="translate(28.841445922851562,97.65843772888184)"><g class="tp-name"><g stroke="url(#f5ccc676-a2de-441c-8d23-2f52ecbe6fc0)" transform="translate(0, 8.364774456024165)" fill="url(#f5ccc676-a2de-441c-8d23-2f52ecbe6fc0)"><g transform="scale(1.4600000000000004)"><path d="M8.05 0L3.04 0 7.2904676661659735-24.105600000000003 12.300467666165975-24.105600000000003 10.537056797496758-14.104800000000001 25.417056797496755-14.104800000000001 27.180467666165974-24.105600000000003 32.19046766616597-24.105600000000003 27.94 0 22.93 0 24.721975839543987-10.1628 9.841975839543988-10.1628 8.05 0ZM48.36 0L37.89 0Q35.34 0 34.30424180194844-1.1016000000000001 33.26038793528854-2.214 33.702192818151666-4.719600000000001L33.702192818151666-4.719600000000001 35.18376264085647-13.122000000000002Q35.2923095301806-13.737600000000002 35.54656037290437-14.612400000000001 35.792715547019796-15.498000000000001 36.385062058351906-16.362000000000002 36.975504238292366-17.2152 38.11833813344154-17.7984 39.26926769719907-18.370800000000003 41.12926769719907-18.370800000000003L41.12926769719907-18.370800000000003 51.59926769719907-18.370800000000003Q53.499267697199066-18.370800000000003 54.42833813344154-17.7984 55.34550423829237-17.2152 55.635062058351906-16.362000000000002 55.912715547019786-15.498000000000001 55.856560372904376-14.612400000000001 55.7923095301806-13.737600000000002 55.68376264085647-13.122000000000002L55.68376264085647-13.122000000000002 54.29550505634259-5.248800000000001Q54.16601052171029-4.5144 53.916046684811576-3.6072 53.657987179304506-2.7108 53.063257993539-1.8900000000000001 52.4585288077735-1.0692000000000002 51.34331223819092-0.5292 50.22 0 48.36 0L48.36 0ZM39.95081203367836-3.5208L39.95081203367836-3.5208 47.540812033678364-3.5208Q49.40081203367836-3.5208 49.69027040520938-5.162400000000001L49.69027040520938-5.162400000000001 51.10709296059804-13.197600000000001Q51.39655133212906-14.839200000000002 49.53655133212906-14.839200000000002L49.53655133212906-14.839200000000002 41.946551332129054-14.839200000000002Q40.126551332129054-14.839200000000002 39.837092960598035-13.197600000000001L39.837092960598035-13.197600000000001 38.42027040520938-5.162400000000001Q38.13081203367836-3.5208 39.95081203367836-3.5208ZM62.56 0L57.93 0 61.934808916642936-22.712400000000002 62.13372565970497-25.995600000000003 67.14372565970497-25.995600000000003 62.56 0ZM82.22 0L71.75 0Q69.2 0 68.16424180194845-1.1016000000000001 67.13038793528854-2.214 67.57219281815166-4.719600000000001L67.57219281815166-4.719600000000001 69.05376264085648-13.122000000000002Q69.16230953018061-13.737600000000002 69.40656037290437-14.612400000000001 69.6627155470198-15.498000000000001 70.2450620583519-16.362000000000002 70.83550423829236-17.2152 71.97833813344155-17.7984 73.12926769719907-18.370800000000003 74.98926769719907-18.370800000000003L74.98926769719907-18.370800000000003 85.45926769719907-18.370800000000003Q87.35926769719907-18.370800000000003 88.28833813344156-17.7984 89.20550423829236-17.2152 89.4950620583519-16.362000000000002 89.7727155470198-15.498000000000001 89.71656037290437-14.612400000000001 89.65230953018062-13.737600000000002 89.54376264085649-13.122000000000002L89.54376264085649-13.122000000000002 88.15550505634259-5.248800000000001Q88.0260105217103-4.5144 87.77604668481158-3.6072 87.51798717930451-2.7108 86.923257993539-1.8900000000000001 86.31852880777349-1.0692000000000002 85.20331223819092-0.5292 84.08 0 82.22 0L82.22 0ZM73.81081203367836-3.5208L73.81081203367836-3.5208 81.40081203367836-3.5208Q83.26081203367836-3.5208 83.55027040520937-5.162400000000001L83.55027040520937-5.162400000000001 84.96709296059804-13.197600000000001Q85.25655133212905-14.839200000000002 83.39655133212905-14.839200000000002L83.39655133212905-14.839200000000002 75.80655133212905-14.839200000000002Q73.98655133212905-14.839200000000002 73.69709296059804-13.197600000000001L73.69709296059804-13.197600000000001 72.28027040520938-5.162400000000001Q71.99081203367837-3.5208 73.81081203367836-3.5208Z" transform="translate(-3.0399999618530273, 25.9955997467041)" stroke-width="1" stroke-linejoin="round"/></g></g> <g transform="translate(129.5615692138672, 0)"><g><g class="imagesvg"><g><rect fill="#333333" fill-opacity="0" stroke-width="2" x="0" y="0" width="48.51486836160892" height="54.68312484401366" class="image-rect"/> <svg x="0" y="0" width="48.51486836160892" height="54.68312484401366" filtersec="colorsb8551657321" class="image-svg-svg primary" style="overflow: visible;"><svg xmlns="http://www.w3.org/2000/svg" viewBox="0.010680079460144043 -0.007637665141373873 60.91294860839844 68.657470703125"><defs><linearGradient id="a610130ed-4a66-47c6-aa94-becfd147e998" y1="34.32" x2="60.93" y2="34.32" gradientUnits="userSpaceOnUse"><stop offset="0" stop-color="#fc62db"/><stop offset=".47" stop-color="#87ebff"/><stop offset=".99" stop-color="#175bec"/></linearGradient></defs><path d="M41.71 0a19.77 19.77 0 0 1 8 1.45C53.31 3 60.26 13.14 60.22 17.08s-2 7.06-4.46 9.9a2.07 2.07 0 0 0-.18 3.02c1.28 1.82 2.34 3.81 3.62 5.62 2.22 3.14 2.13 6.41.67 9.72-2.13 4.9-5.76 8.56-9.87 11.71-8.79 6.65-18.57 10.85-29.6 11.54-6.13.38-11.7-.94-14.82-7.15A27.3 27.3 0 0 0 3 57.4C.23 53.75.19 50 2.2 46a19.42 19.42 0 0 1 3.17-4.65 1.74 1.74 0 0 0 .19-2.57C4.32 37 3.27 35.12 2 33.39c-2.9-3.92-2.35-7.85-.14-11.76a33.86 33.86 0 0 1 8.4-9.49C19 5.05 32 0 41.71 0zM18.87 44.53c12.76-.62 23.64-5.75 33.21-14 2.27-2 2.2-2.76-.37-4.33A16.93 16.93 0 0 0 41.43 24c-12.86 1-23.84 6.25-33.37 14.8-1.05.94-1.16 1.62 0 2.65 3.13 2.77 6.94 3.01 10.81 3.08z" fill="url(#a610130ed-4a66-47c6-aa94-becfd147e998)"/></svg></svg> </g></g></g></g> <g stroke="url(#2332350a-4f84-4d16-8954-b428e53ee35c)" fill="url(#2332350a-4f84-4d16-8954-b428e53ee35c)" transform="translate(181.0764389038086, 8.364774456024165)"><g transform="scale(1.4600000000000004)"><path d="M17.04 0L10.97 0 4.622850340599368-24.062400000000004 9.93285034059937-24.062400000000004 14.145892991631133-7.4628000000000005 14.656010521710293-4.5144 14.996010521710293-4.5144 16.49589299163113-7.4628000000000005 26.642850340599367-24.062400000000004 31.802850340599367-24.062400000000004 30.760567114694496-21.610800000000005 17.04 0ZM40.96 0L33.33 0Q31.43 0 30.50331223819092-0.5292 29.56852880777349-1.0692000000000002 29.283257993539-1.8900000000000001 28.987987179304508-2.7108 29.046046684811575-3.6072 29.116010521710294-4.5144 29.24550505634259-5.248800000000001L29.24550505634259-5.248800000000001 30.633762640856478-13.122000000000002Q30.74230953018061-13.737600000000002 30.986560372904375-14.612400000000001 31.24271554701979-15.498000000000001 31.8350620583519-16.362000000000002 32.415504238292364-17.2152 33.56833813344154-17.7984 34.70926769719907-18.370800000000003 36.569267697199066-18.370800000000003L36.569267697199066-18.370800000000003 44.72926769719907-18.370800000000003Q47.23926769719907-18.370800000000003 48.5678597903998-17.852400000000003 49.898356214992184-17.3448 50.28459275608548-16.1892 50.672733628570434-15.044400000000001 50.33376264085648-13.122000000000002L50.33376264085648-13.122000000000002 49.263528398748385-7.0524000000000004 42.623528398748384-7.0524000000000004Q39.20352839874838-7.0524000000000004 37.09209336962315-7.2144 34.97065834049792-7.3764 34.25827566606453-7.419600000000001L34.25827566606453-7.419600000000001 33.860270405209384-5.162400000000001Q33.53081203367836-3.5208 35.390812033678365-3.5208L35.390812033678365-3.5208 37.33081203367836-3.5208Q39.38081203367836-3.5208 41.342238022028276-3.5856 43.31366401037818-3.6504000000000003 44.96080299290304-3.7476000000000003 46.609846306819556-3.8556 47.61317662656112-3.9312000000000005L47.61317662656112-3.9312000000000005 48.66471110421487-1.2744Q48.44 0 40.96 0L40.96 0ZM35.27709296059804-13.197600000000001L34.81434043242675-10.5732 45.254340432426744-10.5732 45.71709296059804-13.197600000000001Q45.861822146363544-14.018400000000002 45.750856419504736-14.3532 45.63798636125428-14.677200000000001 44.813221012387494-14.7636 43.99655133212906-14.839200000000002 41.98655133212905-14.839200000000002L41.98655133212905-14.839200000000002 37.38655133212906-14.839200000000002Q35.56655133212906-14.839200000000002 35.27709296059804-13.197600000000001L35.27709296059804-13.197600000000001ZM64.5 0L56.87 0Q54.97 0 54.033312238190916-0.5292 53.108528807773496-1.0692000000000002 52.813257993539-1.8900000000000001 52.517987179304505-2.7108 52.58604668481158-3.6072 52.646010521710295-4.5144 52.775505056342595-5.248800000000001L52.775505056342595-5.248800000000001 54.163762640856476-13.122000000000002Q54.27230953018061-13.737600000000002 54.52656037290438-14.612400000000001 54.772715547019786-15.498000000000001 55.3650620583519-16.362000000000002 55.95550423829237-17.2152 57.098338133441544-17.7984 58.249267697199066-18.370800000000003 60.109267697199066-18.370800000000003L60.109267697199066-18.370800000000003 65.37926769719907-18.370800000000003Q70.12926769719907-18.370800000000003 72.07165941240778-18.100800000000003 74.0140511276165-17.830800000000004 73.96453851143356-17.55L73.96453851143356-17.55 72.6541867392463-14.4288Q71.60942139037951-14.5152 69.99656037290437-14.612400000000001 68.3856036868209-14.720400000000001 66.51512534377915-14.7744 64.64655133212905-14.839200000000002 62.85655133212906-14.839200000000002L62.85655133212906-14.839200000000002 60.92655133212906-14.839200000000002Q59.10655133212906-14.839200000000002 58.81709296059804-13.197600000000001L58.81709296059804-13.197600000000001 57.40027040520938-5.162400000000001Q57.070812033678365-3.5208 58.930812033678365-3.5208L58.930812033678365-3.5208 60.860812033678364-3.5208Q62.91081203367836-3.5208 64.88223802202828-3.5856 66.84366401037818-3.6504000000000003 68.50080299290305-3.7476000000000003 70.14984630681955-3.8556 71.1531766265611-3.9312000000000005L71.1531766265611-3.9312000000000005 72.19471110421486-1.2744Q71.97 0 64.5 0L64.5 0Z" transform="translate(-4.62285041809082, 25.9955997467041)" stroke-width="1" stroke-linejoin="round"/></g></g></g> </g><defs v-gra="od"><linearGradient x1="0" y1="1" x2="0" y2="0" id="f5ccc676-a2de-441c-8d23-2f52ecbe6fc0"><stop offset="0%" stop-color="#898989"/><stop offset="100%" stop-color="#596164"/></linearGradient><filter id="42443b3f1de60f6b6fd3b6a9844b4764" filterUnits="objectBoundingBox"><feColorMatrix type="matrix" values="0 0 0 0 0.99609375  0 0 0 0 0.99609375  0 0 0 0 0.99609375  0 0 0 1 0"/></filter><linearGradient x1="0" y1="1" x2="0" y2="0" id="2332350a-4f84-4d16-8954-b428e53ee35c"><stop offset="0%" stop-color="#9c9c9c"/><stop offset="100%" stop-color="#596164"/></linearGradient><filter id="42443b3f1de60f6b6fd3b6a9844b4764" filterUnits="objectBoundingBox"><feColorMatrix type="matrix" values="0 0 0 0 0.99609375  0 0 0 0 0.99609375  0 0 0 0 0.99609375  0 0 0 1 0"/></filter></defs>
  </svg>
</svg>


