<svg xmlns="http://www.w3.org/2000/svg" xmlns:xlink="http://www.w3.org/1999/xlink" version="1.0" x="0" y="0" width="2400" height="2699.156545646423" viewBox="145.25742027282715 97.17329093933105 49.48516708374024 55.65342193603516" preserveAspectRatio="xMidYMid meet" color-interpolation-filters="sRGB"><g><defs><linearGradient id="92" x1="0%" y1="0%" x2="100%" y2="0%"><stop offset="0%" stop-color="#fa71cd"></stop> <stop offset="100%" stop-color="#9b59b6"></stop></linearGradient><linearGradient id="93" x1="0%" y1="0%" x2="100%" y2="0%"><stop offset="0%" stop-color="#f9d423"></stop> <stop offset="100%" stop-color="#f83600"></stop></linearGradient><linearGradient id="94" x1="0%" y1="0%" x2="100%" y2="0%"><stop offset="0%" stop-color="#0064d2"></stop> <stop offset="100%" stop-color="#1cb0f6"></stop></linearGradient><linearGradient id="95" x1="0%" y1="0%" x2="100%" y2="0%"><stop offset="0%" stop-color="#f00978"></stop> <stop offset="100%" stop-color="#3f51b1"></stop></linearGradient><linearGradient id="96" x1="0%" y1="0%" x2="100%" y2="0%"><stop offset="0%" stop-color="#7873f5"></stop> <stop offset="100%" stop-color="#ec77ab"></stop></linearGradient><linearGradient id="97" x1="0%" y1="0%" x2="100%" y2="0%"><stop offset="0%" stop-color="#f9d423"></stop> <stop offset="100%" stop-color="#e14fad"></stop></linearGradient><linearGradient id="98" x1="0%" y1="0%" x2="100%" y2="0%"><stop offset="0%" stop-color="#009efd"></stop> <stop offset="100%" stop-color="#2af598"></stop></linearGradient><linearGradient id="99" x1="0%" y1="0%" x2="100%" y2="0%"><stop offset="0%" stop-color="#ffcc00"></stop> <stop offset="100%" stop-color="#00b140"></stop></linearGradient><linearGradient id="100" x1="0%" y1="0%" x2="100%" y2="0%"><stop offset="0%" stop-color="#d51007"></stop> <stop offset="100%" stop-color="#ff8177"></stop></linearGradient><linearGradient id="102" x1="0%" y1="0%" x2="100%" y2="0%"><stop offset="0%" stop-color="#a2b6df"></stop> <stop offset="100%" stop-color="#0c3483"></stop></linearGradient><linearGradient id="103" x1="0%" y1="0%" x2="100%" y2="0%"><stop offset="0%" stop-color="#7ac5d8"></stop> <stop offset="100%" stop-color="#eea2a2"></stop></linearGradient><linearGradient id="104" x1="0%" y1="0%" x2="100%" y2="0%"><stop offset="0%" stop-color="#00ecbc"></stop> <stop offset="100%" stop-color="#007adf"></stop></linearGradient><linearGradient id="105" x1="0%" y1="0%" x2="100%" y2="0%"><stop offset="0%" stop-color="#b88746"></stop> <stop offset="100%" stop-color="#fdf5a6"></stop></linearGradient></defs><g class="imagesvg isNoFont" transform="translate(145.7425651550293,97.65843772888184)"><g><rect fill="#333333" fill-opacity="0" stroke-width="2" x="0" y="0" width="48.51486836160892" height="54.68312484401366" class="image-rect"></rect> <svg x="0" y="0" width="48.51486836160892" height="54.68312484401366" filtersec="colorsb3777429444" class="image-svg-svg primary" style="overflow: visible;"><svg xmlns="http://www.w3.org/2000/svg" viewBox="0.010680079460144043 -0.007637665141373873 60.91294860839844 68.657470703125"><defs><linearGradient id="a610130ed-4a66-47c6-aa94-becfd147e998" y1="34.32" x2="60.93" y2="34.32" gradientUnits="userSpaceOnUse"><stop offset="0" stop-color="#fc62db"></stop><stop offset=".47" stop-color="#87ebff"></stop><stop offset=".99" stop-color="#175bec"></stop></linearGradient></defs><path d="M41.71 0a19.77 19.77 0 0 1 8 1.45C53.31 3 60.26 13.14 60.22 17.08s-2 7.06-4.46 9.9a2.07 2.07 0 0 0-.18 3.02c1.28 1.82 2.34 3.81 3.62 5.62 2.22 3.14 2.13 6.41.67 9.72-2.13 4.9-5.76 8.56-9.87 11.71-8.79 6.65-18.57 10.85-29.6 11.54-6.13.38-11.7-.94-14.82-7.15A27.3 27.3 0 0 0 3 57.4C.23 53.75.19 50 2.2 46a19.42 19.42 0 0 1 3.17-4.65 1.74 1.74 0 0 0 .19-2.57C4.32 37 3.27 35.12 2 33.39c-2.9-3.92-2.35-7.85-.14-11.76a33.86 33.86 0 0 1 8.4-9.49C19 5.05 32 0 41.71 0zM18.87 44.53c12.76-.62 23.64-5.75 33.21-14 2.27-2 2.2-2.76-.37-4.33A16.93 16.93 0 0 0 41.43 24c-12.86 1-23.84 6.25-33.37 14.8-1.05.94-1.16 1.62 0 2.65 3.13 2.77 6.94 3.01 10.81 3.08z" fill="url(#a610130ed-4a66-47c6-aa94-becfd147e998)"></path></svg></svg> </g></g><defs v-gra="od"></defs></g></svg>